<mxfile host="app.diagrams.net" modified="2024-02-17T06:50:44.317Z" agent="Mozilla/5.0 (Windows NT 10.0; Win64; x64) AppleWebKit/537.36 (KHTML, like Gecko) Chrome/121.0.0.0 Safari/537.36" etag="UHkxnQ8kHafY6SH8wzAR" version="23.1.5" type="github">
  <diagram id="C5RBs43oDa-KdzZeNtuy" name="Page-1">
    <mxGraphModel dx="875" dy="442" grid="1" gridSize="10" guides="1" tooltips="1" connect="1" arrows="1" fold="1" page="1" pageScale="1" pageWidth="827" pageHeight="1169" math="0" shadow="0">
      <root>
        <mxCell id="WIyWlLk6GJQsqaUBKTNV-0" />
        <mxCell id="WIyWlLk6GJQsqaUBKTNV-1" parent="WIyWlLk6GJQsqaUBKTNV-0" />
        <mxCell id="G0uzqrdoPxzXNGS-ZDy8-0" value="Department" style="swimlane;fontStyle=1;align=center;verticalAlign=top;childLayout=stackLayout;horizontal=1;startSize=26;horizontalStack=0;resizeParent=1;resizeParentMax=0;resizeLast=0;collapsible=1;marginBottom=0;whiteSpace=wrap;html=1;" vertex="1" parent="WIyWlLk6GJQsqaUBKTNV-1">
          <mxGeometry x="305" y="50" width="250" height="150" as="geometry" />
        </mxCell>
        <mxCell id="G0uzqrdoPxzXNGS-ZDy8-1" value="- Dept_code (int)&lt;br&gt;- Dept_name (String)" style="text;strokeColor=none;fillColor=none;align=left;verticalAlign=top;spacingLeft=4;spacingRight=4;overflow=hidden;rotatable=0;points=[[0,0.5],[1,0.5]];portConstraint=eastwest;whiteSpace=wrap;html=1;" vertex="1" parent="G0uzqrdoPxzXNGS-ZDy8-0">
          <mxGeometry y="26" width="250" height="44" as="geometry" />
        </mxCell>
        <mxCell id="G0uzqrdoPxzXNGS-ZDy8-2" value="" style="line;strokeWidth=1;fillColor=none;align=left;verticalAlign=middle;spacingTop=-1;spacingLeft=3;spacingRight=3;rotatable=0;labelPosition=right;points=[];portConstraint=eastwest;strokeColor=inherit;" vertex="1" parent="G0uzqrdoPxzXNGS-ZDy8-0">
          <mxGeometry y="70" width="250" height="8" as="geometry" />
        </mxCell>
        <mxCell id="G0uzqrdoPxzXNGS-ZDy8-3" value="+ getters &amp;amp; setters&lt;br&gt;+ addCourse(course: Course) : Void&lt;br&gt;+ addStudent(Student): Void&lt;br&gt;+ addProfessor (Professor): Void" style="text;strokeColor=none;fillColor=none;align=left;verticalAlign=top;spacingLeft=4;spacingRight=4;overflow=hidden;rotatable=0;points=[[0,0.5],[1,0.5]];portConstraint=eastwest;whiteSpace=wrap;html=1;" vertex="1" parent="G0uzqrdoPxzXNGS-ZDy8-0">
          <mxGeometry y="78" width="250" height="72" as="geometry" />
        </mxCell>
        <mxCell id="G0uzqrdoPxzXNGS-ZDy8-30" style="edgeStyle=orthogonalEdgeStyle;rounded=0;orthogonalLoop=1;jettySize=auto;html=1;entryX=0;entryY=0.5;entryDx=0;entryDy=0;endArrow=diamond;endFill=0;" edge="1" parent="WIyWlLk6GJQsqaUBKTNV-1" source="G0uzqrdoPxzXNGS-ZDy8-4" target="G0uzqrdoPxzXNGS-ZDy8-1">
          <mxGeometry relative="1" as="geometry" />
        </mxCell>
        <mxCell id="G0uzqrdoPxzXNGS-ZDy8-4" value="Student" style="swimlane;fontStyle=1;align=center;verticalAlign=top;childLayout=stackLayout;horizontal=1;startSize=26;horizontalStack=0;resizeParent=1;resizeParentMax=0;resizeLast=0;collapsible=1;marginBottom=0;whiteSpace=wrap;html=1;" vertex="1" parent="WIyWlLk6GJQsqaUBKTNV-1">
          <mxGeometry x="40" y="240" width="200" height="230" as="geometry" />
        </mxCell>
        <mxCell id="G0uzqrdoPxzXNGS-ZDy8-5" value="- student_id (int)&lt;br&gt;- student_name (String)&lt;br&gt;- password (String)&lt;br&gt;- ssn (int)&lt;br&gt;- contact (int)&lt;br&gt;- birthdate (date)&lt;br&gt;- Gender (String)&lt;br&gt;- CGPA&amp;nbsp; (float)&lt;br&gt;- image (String)&lt;br&gt;- Department (int)&lt;div&gt;&lt;br/&gt;&lt;/div&gt;" style="text;strokeColor=none;fillColor=none;align=left;verticalAlign=top;spacingLeft=4;spacingRight=4;overflow=hidden;rotatable=0;points=[[0,0.5],[1,0.5]];portConstraint=eastwest;whiteSpace=wrap;html=1;" vertex="1" parent="G0uzqrdoPxzXNGS-ZDy8-4">
          <mxGeometry y="26" width="200" height="154" as="geometry" />
        </mxCell>
        <mxCell id="G0uzqrdoPxzXNGS-ZDy8-6" value="" style="line;strokeWidth=1;fillColor=none;align=left;verticalAlign=middle;spacingTop=-1;spacingLeft=3;spacingRight=3;rotatable=0;labelPosition=right;points=[];portConstraint=eastwest;strokeColor=inherit;" vertex="1" parent="G0uzqrdoPxzXNGS-ZDy8-4">
          <mxGeometry y="180" width="200" height="8" as="geometry" />
        </mxCell>
        <mxCell id="G0uzqrdoPxzXNGS-ZDy8-7" value="+ getters &amp;amp; setters&lt;br&gt;+ addCourse(course: Course) :Void" style="text;strokeColor=none;fillColor=none;align=left;verticalAlign=top;spacingLeft=4;spacingRight=4;overflow=hidden;rotatable=0;points=[[0,0.5],[1,0.5]];portConstraint=eastwest;whiteSpace=wrap;html=1;" vertex="1" parent="G0uzqrdoPxzXNGS-ZDy8-4">
          <mxGeometry y="188" width="200" height="42" as="geometry" />
        </mxCell>
        <mxCell id="G0uzqrdoPxzXNGS-ZDy8-24" style="edgeStyle=orthogonalEdgeStyle;rounded=0;orthogonalLoop=1;jettySize=auto;html=1;entryX=1;entryY=0.5;entryDx=0;entryDy=0;" edge="1" parent="WIyWlLk6GJQsqaUBKTNV-1" source="G0uzqrdoPxzXNGS-ZDy8-8" target="G0uzqrdoPxzXNGS-ZDy8-13">
          <mxGeometry relative="1" as="geometry">
            <Array as="points">
              <mxPoint x="560" y="322" />
              <mxPoint x="560" y="573" />
            </Array>
          </mxGeometry>
        </mxCell>
        <mxCell id="G0uzqrdoPxzXNGS-ZDy8-27" style="edgeStyle=orthogonalEdgeStyle;rounded=0;orthogonalLoop=1;jettySize=auto;html=1;entryX=1;entryY=0.5;entryDx=0;entryDy=0;endArrow=diamond;endFill=0;" edge="1" parent="WIyWlLk6GJQsqaUBKTNV-1" source="G0uzqrdoPxzXNGS-ZDy8-8" target="G0uzqrdoPxzXNGS-ZDy8-1">
          <mxGeometry relative="1" as="geometry" />
        </mxCell>
        <mxCell id="G0uzqrdoPxzXNGS-ZDy8-8" value="Professor" style="swimlane;fontStyle=1;align=center;verticalAlign=top;childLayout=stackLayout;horizontal=1;startSize=26;horizontalStack=0;resizeParent=1;resizeParentMax=0;resizeLast=0;collapsible=1;marginBottom=0;whiteSpace=wrap;html=1;" vertex="1" parent="WIyWlLk6GJQsqaUBKTNV-1">
          <mxGeometry x="600" y="240" width="160" height="164" as="geometry" />
        </mxCell>
        <mxCell id="G0uzqrdoPxzXNGS-ZDy8-9" value="- ssn (int)&lt;br&gt;- name (String)&lt;br&gt;- password (String)&lt;br&gt;- Contact (int)&lt;br&gt;- Gender (String)&lt;br&gt;- Department (int)" style="text;strokeColor=none;fillColor=none;align=left;verticalAlign=top;spacingLeft=4;spacingRight=4;overflow=hidden;rotatable=0;points=[[0,0.5],[1,0.5]];portConstraint=eastwest;whiteSpace=wrap;html=1;" vertex="1" parent="G0uzqrdoPxzXNGS-ZDy8-8">
          <mxGeometry y="26" width="160" height="104" as="geometry" />
        </mxCell>
        <mxCell id="G0uzqrdoPxzXNGS-ZDy8-10" value="" style="line;strokeWidth=1;fillColor=none;align=left;verticalAlign=middle;spacingTop=-1;spacingLeft=3;spacingRight=3;rotatable=0;labelPosition=right;points=[];portConstraint=eastwest;strokeColor=inherit;" vertex="1" parent="G0uzqrdoPxzXNGS-ZDy8-8">
          <mxGeometry y="130" width="160" height="8" as="geometry" />
        </mxCell>
        <mxCell id="G0uzqrdoPxzXNGS-ZDy8-11" value="+ getters &amp;amp; setters" style="text;strokeColor=none;fillColor=none;align=left;verticalAlign=top;spacingLeft=4;spacingRight=4;overflow=hidden;rotatable=0;points=[[0,0.5],[1,0.5]];portConstraint=eastwest;whiteSpace=wrap;html=1;" vertex="1" parent="G0uzqrdoPxzXNGS-ZDy8-8">
          <mxGeometry y="138" width="160" height="26" as="geometry" />
        </mxCell>
        <mxCell id="G0uzqrdoPxzXNGS-ZDy8-12" value="Course" style="swimlane;fontStyle=1;align=center;verticalAlign=top;childLayout=stackLayout;horizontal=1;startSize=26;horizontalStack=0;resizeParent=1;resizeParentMax=0;resizeLast=0;collapsible=1;marginBottom=0;whiteSpace=wrap;html=1;" vertex="1" parent="WIyWlLk6GJQsqaUBKTNV-1">
          <mxGeometry x="320" y="500" width="220" height="170" as="geometry" />
        </mxCell>
        <mxCell id="G0uzqrdoPxzXNGS-ZDy8-13" value="- course_code (int)&lt;br&gt;- course_name (String)&lt;br&gt;- description (String)&lt;br&gt;- cridet_hours (int)&lt;br&gt;- Level (String)&lt;br&gt;- Doctors[]: Doctors" style="text;strokeColor=none;fillColor=none;align=left;verticalAlign=top;spacingLeft=4;spacingRight=4;overflow=hidden;rotatable=0;points=[[0,0.5],[1,0.5]];portConstraint=eastwest;whiteSpace=wrap;html=1;" vertex="1" parent="G0uzqrdoPxzXNGS-ZDy8-12">
          <mxGeometry y="26" width="220" height="94" as="geometry" />
        </mxCell>
        <mxCell id="G0uzqrdoPxzXNGS-ZDy8-14" value="" style="line;strokeWidth=1;fillColor=none;align=left;verticalAlign=middle;spacingTop=-1;spacingLeft=3;spacingRight=3;rotatable=0;labelPosition=right;points=[];portConstraint=eastwest;strokeColor=inherit;" vertex="1" parent="G0uzqrdoPxzXNGS-ZDy8-12">
          <mxGeometry y="120" width="220" height="8" as="geometry" />
        </mxCell>
        <mxCell id="G0uzqrdoPxzXNGS-ZDy8-15" value="+ getters &amp;amp; setters&lt;br&gt;+ addProfessor(prof:Professor): Void" style="text;strokeColor=none;fillColor=none;align=left;verticalAlign=top;spacingLeft=4;spacingRight=4;overflow=hidden;rotatable=0;points=[[0,0.5],[1,0.5]];portConstraint=eastwest;whiteSpace=wrap;html=1;" vertex="1" parent="G0uzqrdoPxzXNGS-ZDy8-12">
          <mxGeometry y="128" width="220" height="42" as="geometry" />
        </mxCell>
        <mxCell id="G0uzqrdoPxzXNGS-ZDy8-16" value="Semester course" style="swimlane;fontStyle=1;align=center;verticalAlign=top;childLayout=stackLayout;horizontal=1;startSize=26;horizontalStack=0;resizeParent=1;resizeParentMax=0;resizeLast=0;collapsible=1;marginBottom=0;whiteSpace=wrap;html=1;" vertex="1" parent="WIyWlLk6GJQsqaUBKTNV-1">
          <mxGeometry x="350" y="740" width="160" height="134" as="geometry" />
        </mxCell>
        <mxCell id="G0uzqrdoPxzXNGS-ZDy8-17" value="- code (String)&lt;br&gt;- semester (String)&lt;br&gt;- Year (int)&lt;br&gt;- courses_codes[] (int)" style="text;strokeColor=none;fillColor=none;align=left;verticalAlign=top;spacingLeft=4;spacingRight=4;overflow=hidden;rotatable=0;points=[[0,0.5],[1,0.5]];portConstraint=eastwest;whiteSpace=wrap;html=1;" vertex="1" parent="G0uzqrdoPxzXNGS-ZDy8-16">
          <mxGeometry y="26" width="160" height="74" as="geometry" />
        </mxCell>
        <mxCell id="G0uzqrdoPxzXNGS-ZDy8-18" value="" style="line;strokeWidth=1;fillColor=none;align=left;verticalAlign=middle;spacingTop=-1;spacingLeft=3;spacingRight=3;rotatable=0;labelPosition=right;points=[];portConstraint=eastwest;strokeColor=inherit;" vertex="1" parent="G0uzqrdoPxzXNGS-ZDy8-16">
          <mxGeometry y="100" width="160" height="8" as="geometry" />
        </mxCell>
        <mxCell id="G0uzqrdoPxzXNGS-ZDy8-19" value="+ getters &amp;amp; setters" style="text;strokeColor=none;fillColor=none;align=left;verticalAlign=top;spacingLeft=4;spacingRight=4;overflow=hidden;rotatable=0;points=[[0,0.5],[1,0.5]];portConstraint=eastwest;whiteSpace=wrap;html=1;" vertex="1" parent="G0uzqrdoPxzXNGS-ZDy8-16">
          <mxGeometry y="108" width="160" height="26" as="geometry" />
        </mxCell>
        <mxCell id="G0uzqrdoPxzXNGS-ZDy8-20" style="rounded=0;orthogonalLoop=1;jettySize=auto;html=1;endArrow=block;endFill=0;" edge="1" parent="WIyWlLk6GJQsqaUBKTNV-1" source="G0uzqrdoPxzXNGS-ZDy8-16" target="G0uzqrdoPxzXNGS-ZDy8-15">
          <mxGeometry relative="1" as="geometry">
            <mxPoint x="400" y="650" as="targetPoint" />
          </mxGeometry>
        </mxCell>
        <mxCell id="G0uzqrdoPxzXNGS-ZDy8-23" style="edgeStyle=orthogonalEdgeStyle;rounded=0;orthogonalLoop=1;jettySize=auto;html=1;" edge="1" parent="WIyWlLk6GJQsqaUBKTNV-1" source="G0uzqrdoPxzXNGS-ZDy8-13" target="G0uzqrdoPxzXNGS-ZDy8-5">
          <mxGeometry relative="1" as="geometry" />
        </mxCell>
        <mxCell id="G0uzqrdoPxzXNGS-ZDy8-29" style="rounded=0;orthogonalLoop=1;jettySize=auto;html=1;endArrow=diamond;endFill=0;" edge="1" parent="WIyWlLk6GJQsqaUBKTNV-1" source="G0uzqrdoPxzXNGS-ZDy8-12" target="G0uzqrdoPxzXNGS-ZDy8-3">
          <mxGeometry relative="1" as="geometry" />
        </mxCell>
        <mxCell id="G0uzqrdoPxzXNGS-ZDy8-31" value="*" style="text;html=1;align=center;verticalAlign=middle;resizable=0;points=[];autosize=1;strokeColor=none;fillColor=none;" vertex="1" parent="WIyWlLk6GJQsqaUBKTNV-1">
          <mxGeometry x="575" y="298" width="30" height="30" as="geometry" />
        </mxCell>
        <mxCell id="G0uzqrdoPxzXNGS-ZDy8-32" value="*" style="text;html=1;align=center;verticalAlign=middle;resizable=0;points=[];autosize=1;strokeColor=none;fillColor=none;" vertex="1" parent="WIyWlLk6GJQsqaUBKTNV-1">
          <mxGeometry x="540" y="550" width="30" height="30" as="geometry" />
        </mxCell>
        <mxCell id="G0uzqrdoPxzXNGS-ZDy8-33" value="*" style="text;html=1;align=center;verticalAlign=middle;resizable=0;points=[];autosize=1;strokeColor=none;fillColor=none;" vertex="1" parent="WIyWlLk6GJQsqaUBKTNV-1">
          <mxGeometry x="290" y="550" width="30" height="30" as="geometry" />
        </mxCell>
        <mxCell id="G0uzqrdoPxzXNGS-ZDy8-34" value="5-60" style="text;html=1;align=center;verticalAlign=middle;resizable=0;points=[];autosize=1;strokeColor=none;fillColor=none;" vertex="1" parent="WIyWlLk6GJQsqaUBKTNV-1">
          <mxGeometry x="240" y="310" width="50" height="30" as="geometry" />
        </mxCell>
        <mxCell id="G0uzqrdoPxzXNGS-ZDy8-36" value="*" style="text;html=1;align=center;verticalAlign=middle;resizable=0;points=[];autosize=1;strokeColor=none;fillColor=none;" vertex="1" parent="WIyWlLk6GJQsqaUBKTNV-1">
          <mxGeometry x="110" y="210" width="30" height="30" as="geometry" />
        </mxCell>
        <mxCell id="G0uzqrdoPxzXNGS-ZDy8-37" value="1" style="text;html=1;align=center;verticalAlign=middle;resizable=0;points=[];autosize=1;strokeColor=none;fillColor=none;" vertex="1" parent="WIyWlLk6GJQsqaUBKTNV-1">
          <mxGeometry x="270" y="70" width="30" height="30" as="geometry" />
        </mxCell>
        <mxCell id="G0uzqrdoPxzXNGS-ZDy8-38" value="1-3" style="text;html=1;align=center;verticalAlign=middle;resizable=0;points=[];autosize=1;strokeColor=none;fillColor=none;" vertex="1" parent="WIyWlLk6GJQsqaUBKTNV-1">
          <mxGeometry x="555" y="70" width="40" height="30" as="geometry" />
        </mxCell>
        <mxCell id="G0uzqrdoPxzXNGS-ZDy8-39" value="*" style="text;html=1;align=center;verticalAlign=middle;resizable=0;points=[];autosize=1;strokeColor=none;fillColor=none;" vertex="1" parent="WIyWlLk6GJQsqaUBKTNV-1">
          <mxGeometry x="685" y="210" width="30" height="30" as="geometry" />
        </mxCell>
      </root>
    </mxGraphModel>
  </diagram>
</mxfile>
